<svg width="52" height="52" viewBox="0 0 52 52" fill="none" xmlns="http://www.w3.org/2000/svg">
<path d="M49.2 19.6H34.8C33.83 19.6 32.95 19.02 32.58 18.12C32.21 17.22 32.41 16.19 33.1 15.5L37.77 10.83C30.24 4.97 19.34 5.5 12.42 12.42C4.92 19.92 4.92 32.07 12.42 39.57C19.92 47.07 32.07 47.07 39.57 39.57C40.39 38.75 41.12 37.88 41.76 36.96C42.77 35.51 44.77 35.16 46.22 36.17C47.67 37.18 48.02 39.18 47.01 40.63C46.16 41.85 45.19 43.01 44.1 44.1C34.1 54.1 17.89 54.1 7.9 44.1C-2.09 34.1 -2.1 17.9 7.9 7.9C17.33 -1.53 32.27 -2.06 42.33 6.28L47.5 1.1C48.19 0.409998 49.22 0.209998 50.12 0.579998C51.02 0.949998 51.6 1.83 51.6 2.8V17.2C51.6 18.53 50.53 19.6 49.2 19.6Z" fill="#C1C1C1"/>
</svg>
